# xmcd
#
# Track frame offsets: 
#        150
#        16979
#        30524
#        45516
#        60350
#        71308
#
# Disc length: 1270 seconds
#
# Revision: 0
# Processed by: cddbd v1.5.1PL0 Copyright (c) Steve Scherf et al.
# Submitted via: ExactAudioCopy v0.95a5
#
DISCID=3c04f406
DTITLE=De Blytunge Lefsebrødrene - De Beste Lefselåtene
DYEAR=1993
DGENRE=Country
TTITLE0=Turn U to Stone
TTITLE1=Red Dancing Dress
TTITLE2=Absence
TTITLE3=Wasn´t Born to Follow
TTITLE4=Has Anybody Here Seen Hank?
TTITLE5=Soul of Ireland
EXTD=
EXTT0=
EXTT1=
EXTT2=
EXTT3=
EXTT4=
EXTT5=
PLAYORDER=
